<svg width="200" height="40" viewBox="0 0 200 40" fill="none" xmlns="http://www.w3.org/2000/svg">
<g clip-path="url(#clip0_1254_3000)">
<mask id="mask0_1254_3000" style="mask-type:luminance" maskUnits="userSpaceOnUse" x="0" y="0" width="40" height="40">
<path d="M24.0291 32.0694C26.6043 32.0363 29.0469 31.6637 31.2081 30.935C31.7546 30.7529 32.2679 30.5458 32.7648 30.3306C32.1603 31.8044 31.2826 33.0216 30.1317 33.9407C27.8546 35.6133 25.1718 36.7643 22.2655 37.2031C22.9941 35.9445 23.582 34.1643 24.0291 32.0777M11.9152 35.6382C11.8573 35.5968 11.7993 35.5554 11.7413 35.5223C10.7311 35.0254 10.3171 32.7732 10.8471 29.3204C12.7929 30.1981 14.9126 30.8853 17.14 31.3656C18.8292 31.7299 20.5101 31.9452 22.1578 32.0363C21.3546 35.5388 20.3196 37.3853 19.6324 37.3853C19.591 37.3853 19.5496 37.3853 19.5082 37.4019C16.7922 37.3853 14.2254 36.756 11.9235 35.6547M2.5089 24.4765C2.35158 23.8803 2.25222 23.2758 2.21909 22.6631C2.82355 23.5325 3.56877 24.3771 4.45475 25.1968C5.78786 26.4306 7.36938 27.5319 9.14134 28.4758C8.77701 30.4962 8.67765 32.3178 8.9095 33.7917C5.87066 31.4898 3.59361 28.2357 2.51718 24.4765M25.1801 19.5746C25.1801 18.8625 25.1718 18.1504 25.147 17.4383C27.4158 17.2892 29.5189 16.7014 31.2412 15.7077C32.831 18.8625 33.6921 22.1828 33.6839 25.321C33.6839 26.2319 33.6011 27.093 33.4603 27.9127C32.6406 28.4178 31.6966 28.8484 30.6367 29.2045C28.7571 29.8338 26.6291 30.1815 24.3852 30.2395C24.9234 26.9936 25.1884 23.2344 25.1884 19.5746M17.5126 29.5771C15.2521 29.0968 13.1158 28.3764 11.1866 27.4656C11.8241 24.6089 12.9999 21.1478 14.8795 17.3058C15.1528 16.751 15.426 16.2045 15.7158 15.6663C17.0241 16.2542 18.4483 16.7179 19.947 17.0408C21.0814 17.281 22.2158 17.4134 23.3336 17.4548C23.3502 18.1421 23.3667 18.8459 23.3667 19.5746C23.3667 23.872 23.0272 27.4325 22.5304 30.2229C20.8992 30.1567 19.2183 29.9414 17.5292 29.5771M5.6885 23.8554C4.1401 22.423 3.07195 20.9077 2.53374 19.4007C2.96431 17.7115 3.79233 16.0224 5.0178 14.3995C6.17703 12.8593 7.62607 11.4765 9.28211 10.2842C9.76236 11.1453 10.4331 11.9899 11.2859 12.7931C12.0974 13.5549 13.0413 14.2421 14.0929 14.8466C13.8031 15.3931 13.5216 15.9479 13.2483 16.5192C11.6337 19.8313 10.3089 23.3918 9.53051 26.621C8.08976 25.8096 6.79805 24.8822 5.69678 23.8637M23.9381 6.90587C26.0081 8.44599 27.9126 10.4415 29.5024 12.7683C29.8004 13.2071 30.0903 13.6625 30.3552 14.1096C28.8979 14.9542 27.0597 15.451 25.0642 15.6001C24.8986 12.4536 24.526 9.42305 23.9298 6.90587M20.3196 15.2606C19.0031 14.9791 17.7445 14.5733 16.5935 14.0682C18.291 11.0957 20.154 8.50395 21.9922 6.58294C22.5636 8.84344 23.0438 11.874 23.2508 15.6332C22.282 15.5918 21.2967 15.4759 20.3279 15.2606M12.5279 11.46C11.7744 10.7562 11.2031 10.0192 10.8139 9.28229C12.5197 8.25554 14.4158 7.41924 16.4279 6.80651C17.6286 6.45046 18.8375 6.17721 20.0464 5.99505C18.2992 7.94918 16.5604 10.4415 14.9623 13.2485C14.0515 12.7186 13.2318 12.1224 12.5279 11.4683M8.60313 5.64728C8.57829 5.73836 8.55345 5.82945 8.52861 5.92881C8.34644 6.78995 8.363 7.66765 8.58657 8.54535C6.62416 9.89502 4.91844 11.5014 3.56049 13.2982C3.14648 13.8447 2.77387 14.4077 2.44266 14.9708C3.45284 11.2364 5.65538 7.99058 8.61141 5.64728M10.3171 6.3097C10.5159 5.36575 11.0872 4.52117 11.9649 3.81736C14.0929 3.17978 16.5687 3.3371 19.1769 4.28933C18.084 4.47977 16.9827 4.73646 15.9063 5.05939C13.8942 5.66384 11.998 6.49186 10.2592 7.49377C10.2178 7.09632 10.2343 6.69887 10.3171 6.3097ZM25.1139 3.90844C25.7431 3.50271 26.3145 3.22118 26.7947 3.11354C27.7138 3.47787 28.6164 3.94984 29.4775 4.53773C28.0947 4.18997 26.6291 3.98296 25.1139 3.90844ZM22.0419 1.95431C22.7788 2.03711 23.5737 2.16132 24.3852 2.35176C23.8801 2.62501 23.3502 2.9645 22.812 3.37851C22.5718 2.84029 22.3151 2.36832 22.0419 1.95431ZM20.0629 2.67469C19.2349 2.36004 18.4235 2.11163 17.6203 1.93775C18.2661 1.86323 18.9203 1.82183 19.5827 1.82183C19.889 1.82183 20.2699 2.20272 20.6757 2.92309C20.4769 2.84029 20.2699 2.74921 20.0712 2.67469M0 19.6077C0 21.4707 0.264967 23.2758 0.753498 24.9816C0.786619 25.0975 0.81146 25.2134 0.844581 25.3293C0.844581 25.3542 0.861141 25.3707 0.869421 25.3956C3.3452 33.3942 10.8057 39.2235 19.6075 39.2235C23.6814 39.2235 27.4654 37.9732 30.6036 35.8452C30.6367 35.8286 30.6699 35.8121 30.6947 35.7955C30.8852 35.6713 31.059 35.5388 31.2329 35.398C34.8431 32.7318 37.5093 28.865 38.6271 24.3854C38.6934 24.1784 38.7431 23.9714 38.7927 23.7561C38.801 23.7064 38.8093 23.6567 38.8093 23.607C39.0743 22.3236 39.215 20.9822 39.215 19.6243C39.215 16.9746 38.6934 14.4077 37.6749 11.9899C37.4762 11.5262 36.9463 11.3109 36.4826 11.5014C36.0189 11.7001 35.8036 12.23 35.994 12.6937C36.9214 14.888 37.3934 17.2147 37.3934 19.616C37.3934 21.0899 37.2112 22.5141 36.8717 23.8886C36.6068 24.7497 36.1265 25.5529 35.4724 26.2733C35.4889 25.9669 35.4972 25.6523 35.4972 25.3293C35.4972 21.8268 34.5367 18.1338 32.7399 14.6644C34.0565 13.5383 34.8928 12.139 35.1826 10.574C35.2737 10.0772 34.9507 9.60522 34.4539 9.51414C33.9571 9.42305 33.4851 9.74598 33.3941 10.2428C33.2036 11.2778 32.6654 12.2218 31.8291 13.0249C31.5641 12.5944 31.2992 12.1638 31.0094 11.7415C29.4113 9.39821 27.5068 7.36128 25.4285 5.74664C28.1775 5.92881 30.7195 6.59122 32.7648 7.73389C33.0877 7.91606 33.51 7.90778 33.8081 7.65937C34.1972 7.33644 34.2469 6.76511 33.924 6.37594C30.9845 2.26896 25.9005 0.000183105 19.6075 0.000183105C8.79357 0.000183105 0 8.79376 0 19.6077Z" fill="white"/>
</mask>
<g mask="url(#mask0_1254_3000)">
<path d="M39.215 0.000183105H0V39.2152H39.215V0.000183105Z" fill="white"/>
</g>
<path d="M195.504 13.8778C198.402 13.8778 200 15.2772 200 17.8275C200 20.2287 198.427 21.6695 195.793 21.6695H193.947V25.3459H191.504V13.8778H195.504ZM193.947 19.6657H195.404C196.82 19.6657 197.541 19.0447 197.541 17.8192C197.541 16.5937 196.754 15.8982 195.33 15.8982H193.947V19.6657ZM187.008 20.7504C187.008 22.4313 186.362 23.251 185.037 23.251C183.713 23.251 183.017 22.4064 183.017 20.7504V13.8778H180.574V20.5848C180.574 22.2243 180.98 23.4746 181.792 24.286C182.545 25.0478 183.638 25.4287 185.037 25.4287C187.05 25.4287 189.451 24.5841 189.451 20.5765V13.8613H187.008V20.7338V20.7504ZM173.917 13.7785C176.393 13.7785 179.043 15.3103 179.043 19.6243C179.043 23.9383 176.393 25.437 173.917 25.437C171.441 25.437 168.775 23.9134 168.775 19.6243C168.775 15.3351 171.433 13.7785 173.917 13.7785ZM173.917 23.3007C174.886 23.3007 176.517 22.8204 176.517 19.6243C176.517 16.4281 174.886 15.9479 173.917 15.9479C172.228 15.9479 171.301 17.2561 171.301 19.6243C171.301 21.9924 172.228 23.3007 173.917 23.3007ZM166.258 21.8682C166.664 22.688 167.011 23.4 167.815 23.4H168.394V25.2879L168.311 25.3128C168.311 25.3128 167.873 25.4287 167.127 25.4287C165.198 25.4287 164.61 24.1039 164.089 22.9281C163.658 21.9676 163.294 21.1396 162.283 21.1396H161.207V25.3459H158.764V13.8778H162.83C165.803 13.8778 167.185 15.037 167.185 17.5211C167.185 19.0612 166.258 20.0052 165.339 20.4192C165.745 20.8166 166.01 21.3466 166.266 21.8682M161.199 19.2351H162.565C163.923 19.2351 164.768 18.6058 164.768 17.5791C164.768 16.5109 164.031 15.8982 162.747 15.8982H161.207V19.2351H161.199ZM152.256 21.1478H154.773V21.272C154.773 22.0173 154.508 23.2593 152.753 23.2593C151.097 23.2593 150.103 21.9013 150.103 19.616C150.103 17.3307 151.047 15.9396 152.703 15.9396C154.666 15.9396 154.74 17.9268 154.74 18.0096V18.1421L157.026 17.7861V17.6867C157.026 16.8587 156.289 13.7702 152.678 13.7702C149.441 13.7702 147.586 15.8982 147.586 19.616C147.586 23.3338 149.499 25.4287 152.712 25.4287C155.924 25.4287 157.083 23.1765 157.083 21.2555V19.2599H152.264V21.1396L152.256 21.1478ZM144.945 13.8778H142.038L138.246 19.0364V13.8778H135.77V25.3459H138.246V20.0714L142.138 25.3459H145.077L140.639 19.5663L144.945 13.8861V13.8778ZM131.133 20.9574L127.126 13.8778H124.65V25.3459H127.093V18.5064L131.084 25.3459H133.576V13.8778H131.133V20.9574ZM119.814 13.9523L123.996 25.3459H121.454L120.477 22.5389H116.66L115.716 25.3459H113.157L117.363 13.8778H119.789L119.814 13.9523ZM118.572 16.9995L117.33 20.6179H119.839L118.572 16.9995ZM110.888 19.2931C111.766 19.5498 112.925 20.3529 112.925 22.0752C112.925 24.1453 111.46 25.3376 108.893 25.3376H104.057V13.8695H108.429C110.913 13.8695 112.172 14.9046 112.172 16.9498C112.172 18.5313 111.451 19.0943 110.896 19.2848M108.164 18.5644C109.183 18.5644 109.654 18.1338 109.654 17.2147C109.654 16.2956 109.05 15.8982 107.858 15.8982H106.491V18.5561H108.156L108.164 18.5644ZM106.5 23.3172H108.412C109.663 23.3172 110.242 22.8453 110.242 21.8434C110.242 20.6096 109.224 20.3529 108.363 20.3529H106.5V23.3172ZM93.9966 13.8778C97.5654 13.8778 99.6934 16.0886 99.6934 19.8064C99.6934 23.5243 97.7889 25.3459 94.4769 25.3459H90.5935V13.8778H93.9966ZM93.0361 23.3172H94.4603C96.2157 23.3172 97.2673 21.9924 97.2673 19.7733C97.2673 17.2065 96.1577 15.9065 93.9635 15.9065H93.0361V23.3172ZM84.4909 13.8778H82.0483V25.3459H89.4508V23.3172H84.4909V13.8778ZM78.761 21.8682C79.1668 22.688 79.5145 23.4 80.3177 23.4H80.8973V25.2879L80.8145 25.3128C80.8145 25.3128 80.3757 25.4287 79.6305 25.4287C77.7012 25.4287 77.1133 24.1039 76.5916 22.9281C76.1611 21.9676 75.7967 21.1396 74.7865 21.1396H73.7101V25.3459H71.2675V13.8778H75.333C78.2973 13.8778 79.6884 15.037 79.6884 17.5211C79.6884 19.0612 78.761 20.0052 77.8419 20.4192C78.2477 20.8166 78.5126 21.3466 78.7693 21.8682M73.7101 19.2351H75.0763C76.4343 19.2351 77.2706 18.6058 77.2706 17.5791C77.2706 16.5109 76.5337 15.8982 75.2502 15.8982H73.7101V19.2351ZM64.7509 13.7785C67.2267 13.7785 69.8764 15.3103 69.8764 19.6243C69.8764 23.9383 67.2267 25.437 64.7509 25.437C62.2752 25.437 59.6172 23.9134 59.6172 19.6243C59.6172 15.3351 62.2752 13.7785 64.7509 13.7785ZM64.7509 23.3007C65.7197 23.3007 67.3509 22.8204 67.3509 19.6243C67.3509 16.4281 65.7197 15.9479 64.7509 15.9479C63.0618 15.9479 62.1344 17.2561 62.1344 19.6243C62.1344 21.9924 63.0618 23.3007 64.7509 23.3007ZM56.5039 13.8778H59.2612L55.9656 25.3459H53.2083L51.2045 18.1587L49.1759 25.3459H46.4186L43.123 13.8778H45.9632L47.8924 22.2408L50.2026 13.8778H52.2561L54.4918 22.2408L56.4956 13.8778H56.5039Z" fill="white"/>
</g>
<defs>
<clipPath id="clip0_1254_3000">
<rect width="200" height="39.215" fill="white"/>
</clipPath>
</defs>
</svg>
